<svg width="217" height="48" viewBox="0 0 217 48" fill="none" xmlns="http://www.w3.org/2000/svg">
<path d="M12.5156 9.00067C12.712 8.99682 12.8862 9.00917 13.0781 9.04755C13.1091 9.03208 13.14 9.01661 13.1719 9.00067C13.1719 9.03161 13.1719 9.06255 13.1719 9.09442C13.2078 9.09279 13.2438 9.09116 13.2808 9.08948C15.68 9.03096 17.9768 10.2599 19.6855 11.8626C20.3238 12.4732 20.8528 13.1506 21.2812 13.9225C21.3057 13.9663 21.3057 13.9663 21.3307 14.0109C21.8835 15.0135 22.1206 16.0832 22.2078 17.2175C22.2107 17.2557 22.2136 17.2938 22.2167 17.3331C22.231 17.5231 22.2442 17.713 22.2556 17.9032C22.2834 18.3354 22.3481 18.7166 22.5 19.1257C22.5104 19.1541 22.5208 19.1825 22.5316 19.2118C22.6021 19.4042 22.6748 19.5958 22.7479 19.7873C22.9764 20.3875 23.1889 20.9907 23.3789 21.6042C23.3889 21.6362 23.3988 21.6682 23.4091 21.7012C23.5795 22.2521 23.5795 22.2521 23.625 22.5007C23.6979 22.3635 23.7492 22.2284 23.7951 22.0801C24.2956 20.499 25.1031 19.3259 26.25 18.1413C26.2779 18.1124 26.3058 18.0835 26.3345 18.0537C26.6413 17.737 26.9513 17.4375 27.2977 17.1637C27.4309 17.0558 27.5567 16.9421 27.6826 16.8259C28.3432 16.2194 28.3432 16.2194 28.5 16.2194C28.5 16.1885 28.5 16.1575 28.5 16.1257C28.5766 16.0629 28.6563 16.004 28.7373 15.947C28.8075 15.8972 28.8075 15.8972 28.879 15.8464C28.9241 15.8148 28.9692 15.7832 29.0156 15.7507C29.0811 15.7039 29.1465 15.657 29.2119 15.61C29.2554 15.5791 29.2989 15.5482 29.3438 15.5163C28.0654 16.1099 26.707 17.0572 25.7988 18.1501C25.7437 18.2153 25.7437 18.2153 25.6875 18.2819C25.6566 18.2819 25.6256 18.2819 25.5938 18.2819C25.5815 18.3094 25.5692 18.3368 25.5566 18.3651C25.4967 18.4755 25.4316 18.5489 25.3447 18.6393C25.1176 18.8881 24.9267 19.1603 24.7339 19.4358C24.5955 19.6318 24.4573 19.8061 24.2812 19.9694C24.163 19.6145 24.1767 19.2525 24.1758 18.8825C24.1756 18.8356 24.1756 18.8356 24.1755 18.7877C24.1752 18.3276 24.2045 17.8845 24.2928 17.4327C24.3288 17.2469 24.3534 17.0635 24.375 16.8757C24.4059 16.8757 24.4369 16.8757 24.4688 16.8757C24.4735 16.8499 24.4783 16.8242 24.4833 16.7977C24.5372 16.5307 24.6191 16.2938 24.7324 16.0466C24.7487 16.0104 24.7651 15.9742 24.7819 15.937C24.97 15.5278 25.1797 15.1253 25.4531 14.7663C25.4667 14.7363 25.4802 14.7064 25.4941 14.6755C25.5469 14.5788 25.5469 14.5788 25.6564 14.4695C25.7675 14.3582 25.8612 14.2461 25.957 14.1218C26.4132 13.5589 26.944 13.0539 27.5156 12.61C27.5611 12.5694 27.6065 12.5288 27.6533 12.487C27.8741 12.3158 28.1167 12.1852 28.3594 12.0475C28.4649 11.9862 28.5704 11.9246 28.6758 11.863C28.7578 11.8151 28.8398 11.7673 28.9219 11.7194C28.8909 11.6885 28.86 11.6575 28.8281 11.6257C28.8673 11.6232 28.8673 11.6232 28.9072 11.6208C29.1734 11.5986 29.3833 11.5369 29.625 11.4265C31.2802 10.7105 33.162 10.6247 34.9189 10.9665C34.9575 10.9739 34.996 10.9813 35.0357 10.9889C35.0721 10.9964 35.1084 11.004 35.1458 11.0117C35.1774 11.0182 35.2089 11.0248 35.2414 11.0315C35.3776 11.0737 35.4989 11.1378 35.625 11.2038C35.1998 12.5413 34.7511 13.8493 34.171 15.1294C34.1212 15.2395 34.1212 15.2395 34.0781 15.3757C34.0262 15.4601 33.9739 15.5443 33.9205 15.6278C33.8445 15.7495 33.7724 15.8732 33.7003 15.9973C33.4784 16.3765 33.2322 16.7241 32.9531 17.0632C32.9307 17.0904 32.9082 17.1177 32.8851 17.1458C32.4207 17.7061 31.9309 18.2036 31.3484 18.6412C31.2712 18.6996 31.195 18.7593 31.119 18.8192C29.9145 19.7325 28.4694 20.2215 26.993 20.4631C26.9552 20.4693 26.9173 20.4755 26.8783 20.4819C26.6874 20.513 26.4963 20.5432 26.305 20.5721C26.2339 20.5833 26.1629 20.5944 26.0918 20.6055C26.0592 20.6102 26.0266 20.6149 25.9931 20.6197C25.7989 20.6506 25.6636 20.7058 25.5 20.8132C25.4691 20.8132 25.4381 20.8132 25.4062 20.8132C25.3888 20.8509 25.3888 20.8509 25.3711 20.8893C25.3125 21.0007 25.3125 21.0007 25.2129 21.1472C25.1165 21.2682 25.1165 21.2682 25.125 21.3757C25.0941 21.3757 25.0631 21.3757 25.0312 21.3757C25.0194 21.4056 25.0076 21.4356 24.9954 21.4665C24.9499 21.5793 24.9034 21.6914 24.8562 21.8034C24.6205 22.3696 24.4333 22.9379 24.2812 23.5319C24.2728 23.5632 24.2644 23.5946 24.2558 23.6268C24.0803 24.29 24.1107 24.9745 24.1745 25.6518C24.365 27.6912 24.5398 30.5035 23.3438 32.2975C23.3964 32.3025 23.3964 32.3025 23.4501 32.3075C24.6347 32.4203 24.6347 32.4203 25.1807 32.5349C25.2176 32.5424 25.2545 32.55 25.2926 32.5579C25.3782 32.577 25.4627 32.6008 25.5469 32.6257C25.5623 32.6566 25.5778 32.6875 25.5938 32.7194C25.6318 32.7252 25.6699 32.7309 25.7091 32.7368C25.9318 32.7764 26.1211 32.8634 26.3262 32.9567C26.3679 32.9757 26.4096 32.9946 26.4525 33.0141C26.7849 33.1687 27.0819 33.3415 27.375 33.5632C27.4186 33.5948 27.4621 33.6264 27.507 33.6589C28.1484 34.1486 28.6013 34.8233 28.7344 35.6257C28.8123 36.34 28.5532 36.9268 28.1252 37.4813C27.1374 38.6594 25.4386 39.0356 23.9808 39.164C22.2443 39.299 20.2186 39.0906 18.8438 37.9225C18.7964 37.8877 18.749 37.8529 18.7002 37.8171C18.1619 37.3628 17.8926 36.6679 17.8213 35.986C17.7736 35.1302 18.0686 34.4389 18.6152 33.7975C18.9524 33.4326 19.3721 33.1104 19.8281 32.9069C19.8591 32.9069 19.89 32.9069 19.9219 32.9069C19.9219 32.8605 19.9219 32.8141 19.9219 32.7663C19.9662 32.7614 20.0106 32.7565 20.0563 32.7515C20.2858 32.7187 20.5031 32.6487 20.7246 32.5817C21.2392 32.4308 21.7258 32.3261 22.2656 32.3444C22.284 32.2864 22.3024 32.2284 22.3213 32.1686C22.3787 31.9955 22.445 31.8291 22.5176 31.6618C22.6145 31.4326 22.6971 31.2015 22.7725 30.9645C22.7827 30.9329 22.793 30.9013 22.8036 30.8688C22.856 30.6998 22.8869 30.5527 22.875 30.3757C22.9059 30.3757 22.9369 30.3757 22.9688 30.3757C23.0571 29.7162 23.1207 28.9421 22.875 28.3132C22.858 28.2639 22.8409 28.2146 22.8234 28.1638C22.5806 27.487 22.1908 26.8735 21.6094 26.4382C21.305 26.2982 20.9773 26.2911 20.647 26.3065C20.5788 26.3094 20.5107 26.3121 20.4425 26.3149C20.4073 26.3164 20.372 26.3179 20.3357 26.3195C19.403 26.3575 18.5122 26.3293 17.6025 26.1009C17.4352 26.0562 17.4352 26.0562 17.25 26.0632C17.25 26.0322 17.25 26.0013 17.25 25.9694C17.209 25.964 17.1681 25.9587 17.1259 25.9531C16.969 25.9226 16.8487 25.8765 16.7047 25.8081C16.6556 25.7848 16.6065 25.7615 16.5559 25.7375C16.5046 25.7125 16.4533 25.6876 16.4004 25.6618C16.3475 25.6361 16.2947 25.6104 16.2402 25.584C15.6157 25.2761 15.098 24.8855 14.5644 24.4416C14.4952 24.3846 14.4248 24.329 14.3542 24.2737C14.1888 24.138 14.0599 23.9759 13.9219 23.8132C13.8825 23.7686 13.8432 23.724 13.8027 23.678C13.478 23.3075 13.1977 22.9188 12.9375 22.5007C12.9185 22.4703 12.8996 22.4399 12.88 22.4087C12.825 22.3197 12.7712 22.2302 12.7178 22.1403C12.6867 22.0879 12.6555 22.0355 12.6235 21.9816C12.5625 21.8444 12.5625 21.8444 12.5705 21.7494C12.6223 21.6263 12.678 21.6006 12.7956 21.5394C12.8531 21.5092 12.8531 21.5092 12.9118 21.4784C12.9522 21.458 12.9926 21.4377 13.0342 21.4167C13.0733 21.396 13.1124 21.3752 13.1527 21.3539C13.3374 21.2586 13.5106 21.1794 13.7137 21.1329C13.7669 21.1202 13.8202 21.1075 13.875 21.0944C13.8905 21.0635 13.9059 21.0325 13.9219 21.0007C14.0783 20.9628 14.2321 20.9341 14.3906 20.9069C14.4528 20.8946 14.5149 20.8822 14.577 20.8698C16.0963 20.5813 17.5711 20.8055 18.9155 21.567C19.0683 21.6572 19.0683 21.6572 19.2026 21.7014C19.3506 21.7677 19.4355 21.8682 19.5469 21.985C19.629 22.0535 19.7121 22.1208 19.7959 22.1872C20.6003 22.8438 21.1887 23.6956 21.6362 24.6269C21.8578 25.0872 22.1135 25.4776 22.4294 25.8779C22.7713 26.3211 23.0703 26.794 23.3438 27.2819C23.3517 26.7571 23.3307 26.2402 23.2852 25.7175C23.2805 25.6627 23.2805 25.6627 23.2757 25.6067C23.1577 24.2403 22.9365 22.8764 22.4897 21.5759C22.452 21.4662 22.4155 21.3561 22.379 21.246C22.2291 20.8 22.0619 20.3614 21.8848 19.9255C21.8657 19.8774 21.8465 19.8294 21.8269 19.7799C21.8081 19.7347 21.7894 19.6895 21.7701 19.6429C21.7538 19.603 21.7375 19.5631 21.7207 19.5219C21.6261 19.353 21.5265 19.208 21.336 19.1434C21.2339 19.1231 21.1329 19.1097 21.0295 19.0984C20.992 19.0935 20.9545 19.0886 20.9159 19.0836C20.7965 19.0684 20.6771 19.0546 20.5576 19.0407C20.4775 19.0306 20.3974 19.0204 20.3173 19.01C19.8633 18.9514 19.8633 18.9514 19.4062 18.9382C19.4062 18.9072 19.4062 18.8763 19.4062 18.8444C19.3249 18.8358 19.3249 18.8358 19.2418 18.827C18.5889 18.7446 17.9778 18.4719 17.3906 18.1882C17.3603 18.1737 17.33 18.1593 17.2988 18.1445C16.5847 17.8006 15.9498 17.3245 15.375 16.7819C15.3107 16.727 15.2463 16.6723 15.1816 16.6179C15.0079 16.4671 14.8576 16.3005 14.7076 16.1264C14.6591 16.071 14.6094 16.0166 14.5569 15.965C14.1927 15.5952 13.904 15.1278 13.6348 14.6872C13.6132 14.6519 13.5916 14.6166 13.5693 14.5802C13.4858 14.4409 13.4114 14.3112 13.3539 14.1589C13.3334 14.1115 13.3334 14.1115 13.3125 14.0632C13.2429 14.04 13.2429 14.04 13.1719 14.0163C13.1719 13.9544 13.1719 13.8925 13.1719 13.8288C13.1352 13.7404 13.0945 13.6537 13.0518 13.5681C12.4218 12.2327 12.1383 10.8024 12.011 9.34015C12.0077 9.30286 12.0044 9.26557 12.0011 9.22715C12.0007 9.19882 12.0004 9.17049 12 9.1413C12.0469 9.09442 12.0469 9.09442 12.154 9.08984C12.2184 9.09066 12.2184 9.09066 12.2842 9.09149C12.3273 9.09191 12.3703 9.09234 12.4147 9.09277C12.448 9.09332 12.4813 9.09386 12.5156 9.09442C12.5156 9.06348 12.5156 9.03255 12.5156 9.00067ZM16.5 12.9382C16.7371 13.2194 16.9865 13.4868 17.2399 13.7534C17.2701 13.7853 17.3002 13.8172 17.3313 13.85C17.3721 13.8929 17.3721 13.8929 17.4137 13.9367C17.4844 14.0163 17.4844 14.0163 17.5781 14.1569C17.6091 14.1569 17.64 14.1569 17.6719 14.1569C17.6838 14.1842 17.6957 14.2114 17.708 14.2395C17.7718 14.3558 17.8426 14.4314 17.9376 14.5239C17.9717 14.5575 18.0059 14.5912 18.0411 14.6259C18.0947 14.678 18.0947 14.678 18.1494 14.7311C18.3821 14.9584 18.6069 15.1873 18.8189 15.434C18.9085 15.5368 19.0037 15.6323 19.1016 15.7272C19.2283 15.8523 19.3497 15.9782 19.4648 16.114C19.6164 16.291 19.7797 16.4541 19.9453 16.6179C20.196 16.866 20.4325 17.1208 20.6569 17.3931C20.6821 17.4235 20.7074 17.4538 20.7334 17.485C20.7555 17.5121 20.7775 17.5392 20.8002 17.5671C20.8566 17.6367 20.8566 17.6367 20.9531 17.6257C20.9647 17.6526 20.9763 17.6796 20.9883 17.7073C21.0557 17.8292 21.1344 17.9099 21.2344 18.0065C21.2672 18.0386 21.3001 18.0706 21.334 18.1036C21.363 18.1315 21.392 18.1594 21.4219 18.1882C21.4528 18.2191 21.4838 18.25 21.5156 18.2819C21.406 17.5592 20.7435 16.8486 20.2608 16.3322C20.1754 16.2401 20.0936 16.1465 20.012 16.0511C19.8123 15.8222 19.5985 15.6078 19.3834 15.3936C19.3155 15.326 19.248 15.2581 19.1804 15.1903C18.9355 14.9452 18.6858 14.7095 18.4219 14.485C18.3605 14.4316 18.2993 14.3782 18.238 14.3246C18.1782 14.2726 18.1184 14.2206 18.0586 14.1686C18.0283 14.1422 17.998 14.1158 17.9669 14.0886C17.7299 13.8475 17.7299 13.8475 17.4375 13.735C17.422 13.7041 17.4066 13.6732 17.3906 13.6413C17.2341 13.4764 17.0682 13.3284 16.8926 13.1843C16.8485 13.1478 16.8044 13.1113 16.7589 13.0737C16.6442 12.978 16.6442 12.978 16.5 12.9382ZM17.3438 23.1569C17.5312 23.2038 17.5312 23.2038 17.5312 23.2038L17.3438 23.1569ZM17.5312 23.2038C17.6328 23.3053 17.6991 23.332 17.8321 23.3818C18.5114 23.6456 19.1748 23.9711 19.7812 24.3757C19.8286 24.4064 19.8759 24.4372 19.9246 24.4689C20.2039 24.6521 20.4755 24.8438 20.7435 25.0431C20.8571 25.124 20.9732 25.1962 21.0938 25.2663C20.9758 24.8769 20.6618 24.6487 20.3438 24.4225C20.3283 24.4071 20.3128 24.3916 20.2969 24.3757C19.7659 23.9012 19.0962 23.6002 18.4219 23.3913C18.363 23.3729 18.3042 23.3546 18.2435 23.3356C17.8937 23.2271 17.8937 23.2271 17.5312 23.2038Z" fill="#F6C65A"/>
<path d="M23.7798 32.3233C23.8212 32.3249 23.8626 32.3265 23.9053 32.3282C23.9743 32.3308 23.9743 32.3308 24.0446 32.3334C24.2702 32.3498 24.4936 32.3743 24.7178 32.4053C24.7644 32.4116 24.8111 32.4179 24.8592 32.4244C25.6275 32.5316 25.6275 32.5316 25.9219 32.625C25.9373 32.656 25.9528 32.6869 25.9687 32.7188C26.0068 32.7245 26.0449 32.7303 26.0841 32.7362C26.3068 32.7757 26.4961 32.8627 26.7012 32.9561C26.7637 32.9845 26.7637 32.9845 26.8275 33.0135C27.1599 33.1681 27.4569 33.3409 27.75 33.5625C27.7936 33.5941 27.8371 33.6257 27.882 33.6583C28.5234 34.148 28.9763 34.8227 29.1094 35.625C29.1873 36.3394 28.9282 36.9261 28.5002 37.4806C27.5124 38.6587 25.8136 39.0349 24.3558 39.1634C22.6193 39.2983 20.5936 39.0899 19.2187 37.9219C19.1714 37.8871 19.124 37.8523 19.0752 37.8164C18.5369 37.3621 18.2676 36.6673 18.1963 35.9854C18.1486 35.1295 18.4436 34.4382 18.9902 33.7969C19.3274 33.432 19.7471 33.1098 20.2031 32.9063C20.2341 32.9063 20.265 32.9063 20.2969 32.9063C20.2969 32.8599 20.2969 32.8135 20.2969 32.7657C20.3407 32.7608 20.3846 32.756 20.4298 32.751C20.6672 32.7171 20.8936 32.6463 21.123 32.5782C21.2096 32.5527 21.2961 32.5273 21.3827 32.502C21.4206 32.4907 21.4585 32.4795 21.4976 32.4679C21.746 32.4004 21.9766 32.3847 22.2334 32.3877C22.2681 32.3879 22.3028 32.3881 22.3386 32.3884C22.4236 32.3889 22.5614 32.3325 22.6465 32.3334C22.5528 32.5678 22.3228 32.9374 22.1329 33.1924C21.9483 33.4545 21.9076 33.6174 21.9375 33.9375C22.2427 33.9857 22.4509 33.8284 22.6875 33.6563C23.0234 33.3858 23.2306 33.0586 23.4401 32.6886C23.636 32.3506 23.636 32.3506 23.7798 32.3233Z" fill="#161616"/>
<path d="M53.668 14.2031H58.7539L64.25 27.6289H64.4688L69.9648 14.2031H75.0508V34H71.0586V21.0391H70.8945L65.7266 33.918H62.9922L57.8242 20.9844H57.6602V34H53.668V14.2031ZM87.8203 27.6836V19.1523H91.8672V34H87.9844V31.3203H87.8203C87.1367 33.043 85.5508 34.1914 83.3086 34.1914C80.3281 34.1914 78.3047 32.0859 78.3047 28.6133V19.1523H82.3516V27.9023C82.3516 29.6523 83.3633 30.7734 84.9492 30.7734C86.4258 30.7734 87.8203 29.707 87.8203 27.6836ZM103.488 23.5547C103.324 22.5156 102.395 21.832 101.055 21.832C99.7422 21.832 98.7305 22.4609 98.7578 23.3633C98.7305 24.0195 99.2773 24.5391 100.672 24.8398L103.324 25.3867C106.195 25.9883 107.59 27.2734 107.617 29.4062C107.59 32.332 104.965 34.3008 101.027 34.3008C97.0078 34.3008 94.6562 32.4961 94.3281 29.5977H98.4023C98.5938 30.7734 99.5508 31.375 101.027 31.375C102.504 31.375 103.488 30.7734 103.488 29.8164C103.488 29.0508 102.859 28.5859 101.465 28.2852L99.0039 27.793C96.1875 27.2461 94.7109 25.7695 94.7383 23.582C94.7109 20.7383 97.1719 18.9609 101 18.9609C104.746 18.9609 107.07 20.7383 107.289 23.5547H103.488ZM117.926 19.1523V22.1875H115.137V29.4336C115.137 30.6094 115.711 30.9102 116.531 30.9375C116.941 30.9375 117.652 30.9102 118.145 30.8555V34.0547C117.707 34.1367 116.996 34.1914 115.984 34.1914C113.059 34.1914 111.062 32.8789 111.09 30.0078V22.1875H109.039V19.1523H111.09V15.5977H115.137V19.1523H117.926ZM119.758 29.8438C119.758 26.5352 122.438 25.4414 125.281 25.2773C126.348 25.209 128.344 25.1133 128.973 25.0859V23.8828C128.945 22.6523 128.098 21.9141 126.594 21.9141C125.227 21.9141 124.352 22.543 124.133 23.5547H120.277C120.523 20.9844 122.766 18.9609 126.703 18.9609C129.93 18.9609 132.992 20.4102 132.992 23.9922V34H129.164V31.9492H129.055C128.316 33.3164 126.922 34.2734 124.707 34.2734C121.863 34.2734 119.758 32.7969 119.758 29.8438ZM123.641 29.7344C123.641 30.8828 124.57 31.4844 125.855 31.4844C127.688 31.4844 129 30.2539 128.973 28.6953V27.6016C128.357 27.6289 126.635 27.7246 125.938 27.793C124.543 27.9297 123.641 28.5859 123.641 29.7344ZM136.082 34V19.1523H139.992V21.7227H140.156C140.703 19.8906 142.07 18.9336 143.738 18.9336C144.148 18.9336 144.668 18.9883 145.023 19.0703V22.6797C144.641 22.5703 143.875 22.4609 143.301 22.4609C141.469 22.4609 140.129 23.7461 140.129 25.5508V34H136.082ZM151.996 34.2461C148.605 34.2461 145.953 31.5391 145.953 26.5898C145.953 21.5039 148.715 18.9609 151.996 18.9609C154.484 18.9609 155.66 20.4375 156.207 21.6406H156.344V14.2031H160.391V34H156.398V31.6211H156.207C155.633 32.8516 154.402 34.2461 151.996 34.2461ZM153.254 31.0195C155.277 31.0195 156.426 29.2422 156.426 26.5625C156.426 23.8828 155.277 22.1875 153.254 22.1875C151.203 22.1875 150.109 23.9648 150.109 26.5625C150.109 29.1875 151.203 31.0195 153.254 31.0195Z" fill="#463C22"/>
<path d="M174.781 21.2734V23.5703H172.273V30.1797C172.273 31.3984 172.883 31.6562 173.633 31.6562C173.984 31.6562 174.57 31.6328 174.945 31.6094V34.0469C174.594 34.1172 174.008 34.1641 173.258 34.1641C171.008 34.1641 169.273 33.0625 169.297 30.6719V23.5703H167.469V21.2734H169.297V18.2266H172.273V21.2734H174.781ZM182.586 34.2578C178.742 34.2578 176.398 31.7031 176.398 27.7188C176.398 23.7812 178.789 21.1094 182.422 21.1094C185.539 21.1094 188.234 23.0547 188.234 27.5312V28.4688H179.352C179.387 30.6367 180.664 31.9141 182.609 31.9141C183.922 31.9141 184.812 31.3516 185.188 30.6016H188.117C187.578 32.8047 185.539 34.2578 182.586 34.2578ZM179.375 26.4297H185.375C185.352 24.6953 184.203 23.4297 182.469 23.4297C180.664 23.4297 179.469 24.8008 179.375 26.4297ZM196.109 34.2578C192.312 34.2578 190.016 31.5391 190.016 27.6953C190.016 23.8047 192.383 21.1094 196.109 21.1094C199.203 21.1094 201.359 22.9141 201.57 25.6562H198.711C198.477 24.4375 197.586 23.5 196.133 23.5C194.281 23.5 193.039 25.0703 193.039 27.625C193.039 30.25 194.258 31.8203 196.133 31.8203C197.469 31.8203 198.453 31.0469 198.711 29.6641H201.57C201.336 32.3594 199.297 34.2578 196.109 34.2578ZM206.82 26.5469V34H203.82V17.0312H206.75V23.4297H206.914C207.5 22 208.719 21.1094 210.688 21.1094C213.336 21.1094 215.07 22.8203 215.07 25.8906V34H212.094V26.3594C212.094 24.625 211.156 23.6406 209.586 23.6406C207.969 23.6406 206.82 24.6953 206.82 26.5469Z" fill="black"/>
</svg>
